<?xml version="1.0" encoding="utf-8"?>
<!-- Generator: Adobe Illustrator 16.0.0, SVG Export Plug-In . SVG Version: 6.00 Build 0)  -->
<!DOCTYPE svg PUBLIC "-//W3C//DTD SVG 1.1//EN" "http://www.w3.org/Graphics/SVG/1.1/DTD/svg11.dtd">
<svg version="1.1" id="Layer_1" xmlns="http://www.w3.org/2000/svg" xmlns:xlink="http://www.w3.org/1999/xlink" x="0px" y="0px"
	 width="100px" height="100px" viewBox="0 0 100 100" enable-background="new 0 0 100 100" xml:space="preserve">
<g>
	<path d="M82.066,29.956c-0.006-0.088-0.022-0.173-0.051-0.257c-0.012-0.032-0.02-0.063-0.033-0.094
		c-0.049-0.106-0.11-0.207-0.196-0.293L63.408,10.934c-0.086-0.085-0.187-0.147-0.293-0.195c-0.031-0.015-0.063-0.023-0.094-0.034
		c-0.084-0.028-0.17-0.045-0.258-0.051c-0.021-0.001-0.041-0.013-0.063-0.013H33.514c-0.552,0-1,0.448-1,1v15.394H18.92
		c-0.552,0-1,0.448-1,1v60.325c0,0.553,0.448,1,1,1h47.565c0.552,0,1-0.447,1-1V72.966h13.594c0.552,0,1-0.447,1-1V30.019
		C82.079,29.997,82.068,29.977,82.066,29.956z M78.665,29.019H63.701V14.055L78.665,29.019z M65.485,87.359H19.92V29.035h13.594
		h13.593v17.378c0,0.552,0.448,1,1,1h17.378v24.553V87.359z M49.107,30.449l14.964,14.964H49.107V30.449z M67.485,70.966V46.413
		c0-0.022-0.011-0.042-0.013-0.063c-0.006-0.088-0.022-0.173-0.051-0.257c-0.012-0.032-0.02-0.063-0.033-0.094
		c-0.049-0.106-0.11-0.207-0.196-0.293L48.814,27.328c-0.086-0.086-0.187-0.147-0.293-0.196c-0.031-0.014-0.062-0.022-0.094-0.033
		c-0.084-0.029-0.169-0.046-0.258-0.051c-0.021-0.001-0.041-0.013-0.063-0.013H34.514V12.641h27.187v17.378c0,0.552,0.447,1,1,1
		h17.378v39.947H67.485z"/>
	<polygon points="43.703,50.072 41.703,50.072 41.703,57.197 34.578,57.197 34.578,59.197 41.703,59.197 41.703,66.322 
		43.703,66.322 43.703,59.197 50.828,59.197 50.828,57.197 43.703,57.197 	"/>
</g>
</svg>
